<?xml version="1.0" encoding="UTF-8" standalone="no"?>
<!-- Generator: Adobe Illustrator 13.0.0, SVG Export Plug-In . SVG Version: 6.00 Build 14948)  -->

<svg
   xmlns:dc="http://purl.org/dc/elements/1.1/"
   xmlns:cc="http://creativecommons.org/ns#"
   xmlns:rdf="http://www.w3.org/1999/02/22-rdf-syntax-ns#"
   xmlns:svg="http://www.w3.org/2000/svg"
   xmlns="http://www.w3.org/2000/svg"
   xmlns:sodipodi="http://sodipodi.sourceforge.net/DTD/sodipodi-0.dtd"
   xmlns:inkscape="http://www.inkscape.org/namespaces/inkscape"
   version="1.1"
   id="Layer_1"
   x="0px"
   y="0px"
   width="142.75999"
   height="142.75999"
   viewBox="0 0 142.76 142.75999"
   enable-background="new 0 0 142.756 102.121"
   xml:space="preserve"
   inkscape:version="0.48.1 r9760"
   sodipodi:docname="khovsgol.svg"><metadata
   id="metadata117"><rdf:RDF><cc:Work
       rdf:about=""><dc:format>image/svg+xml</dc:format><dc:type
         rdf:resource="http://purl.org/dc/dcmitype/StillImage" /></cc:Work></rdf:RDF></metadata><defs
   id="defs115" /><sodipodi:namedview
   pagecolor="#ffffff"
   bordercolor="#666666"
   borderopacity="1"
   objecttolerance="10"
   gridtolerance="10"
   guidetolerance="10"
   inkscape:pageopacity="0"
   inkscape:pageshadow="2"
   inkscape:window-width="1111"
   inkscape:window-height="798"
   id="namedview113"
   showgrid="false"
   inkscape:zoom="3.2216683"
   inkscape:cx="71.377998"
   inkscape:cy="66.890808"
   inkscape:window-x="1922"
   inkscape:window-y="127"
   inkscape:window-maximized="0"
   inkscape:current-layer="Layer_1" />
<g
   id="g3"
   transform="translate(0,20.638999)">
	<path
   d="m 23.105,2.956 c 1.78,-1.104 3.846,-1.852 6.054,-2.065 l 3.347,-0.214 5.556,0.285 c 1.602,0.213 3.383,0.285 4.878,-0.214 0.356,-0.142 0.605,-0.57 0.961,-0.57 0.143,0.143 -1.389,3.205 -2.065,4.629 0,0 2.546,1.745 9.686,1.425 l 2.635,-0.534 c 0.107,1.656 -4.06,5.769 -3.917,5.84 l 1.816,0.855 c 7.015,3.33 11.36,1.317 11.289,1.496 -0.499,1.603 -0.854,3.276 -1.816,4.665 l -1.175,1.531 c 0.534,0.356 1.175,0.534 1.816,0.641 2.991,0.57 6.375,1.211 9.294,0.463 0.25,0.143 -0.213,1.709 -0.499,2.244 -0.997,1.816 -2.991,4.665 -4.558,5.52 1.424,0.819 2.92,1.531 4.629,1.781 4.701,-0.143 9.33,-0.677 13.817,-1.425 1.638,-0.106 3.134,-0.356 4.772,-0.534 2.6,-0.214 5.199,-0.178 7.728,0.392 2.493,0.534 5.021,1.104 7.193,2.35 0.499,0.392 1.069,0.784 1.354,1.354 1.496,-0.819 5.075,-2.458 10.826,-0.819 1.844,0.525 3.596,1.56 5.092,2.813 6.695,5.608 8.831,13.496 9.828,15.277 1.959,3.739 3.989,13.639 3.739,14.422 -0.071,0.214 -1.282,-1.21 -1.531,-1.389 0,0 0.427,2.707 0.712,3.597 0.213,1.318 0.641,2.778 0.854,4.131 0.427,2.172 1.389,4.131 2.137,6.161 0.712,1.78 1.816,3.418 2.635,5.128 0.499,1.033 2.03,2.974 2.564,3.418 -0.534,0.801 -3.846,-0.178 -5.484,-0.676 -1.567,-0.819 -2.956,-1.888 -4.416,-2.813 0.196,1.977 1.282,3.241 1.318,3.525 -0.463,0.178 -1.033,-0.036 -1.46,-0.178 -1.424,-0.321 -2.706,-1.104 -3.988,-1.781 -2.172,-1.638 -3.846,-3.775 -5.52,-5.698 -0.32,-0.605 -0.677,-1.14 -1.068,-1.709 -0.392,0.854 -0.57,3.561 -0.961,3.347 -0.605,-0.784 -1.14,-1.531 -1.923,-2.172 -0.926,-1.317 -1.638,-2.742 -2.137,-4.237 -0.392,-1.674 -0.715,-3.204 -0.641,-4.95 0.196,-4.647 -0.427,-9.045 -0.427,-9.045 -0.57,0.783 -1.46,1.246 -2.137,1.923 -0.605,0.427 -1.353,0.641 -2.065,0.748 -0.57,-0.143 -1.709,-0.428 -1.958,-0.534 0.285,-2.137 0.961,-3.882 0.961,-6.089 0,-2.137 0.463,-4.024 -0.214,-6.089 -0.605,1.424 -0.961,2.884 -1.495,4.38 -0.534,1.816 -1.175,3.632 -2.244,5.271 l -0.463,1.994 c -0.214,1.673 -0.356,3.383 0.285,4.985 l 0.997,2.137 c 1.282,1.674 2.6,3.241 4.202,4.736 0.677,0.819 1.638,1.709 1.603,2.849 0.036,0.463 -0.534,0.641 -0.748,1.033 -1.923,1.531 -3.774,3.063 -5.377,5.057 -0.997,1.211 -1.994,2.6 -2.778,3.953 -1.46,2.849 -2.635,5.876 -3.953,8.796 -0.285,0.677 -0.854,1.14 -1.603,1.282 l -1.567,0.463 c -0.249,0.499 -0.106,1.104 -0.32,1.567 -0.961,1.139 -2.457,1.139 -3.881,1.46 -1.959,0.213 -4.131,-0.143 -5.983,-0.534 -0.819,-0.356 -2.065,-0.534 -2.635,-1.603 l 0.463,-0.712 4.416,-4.487 c 0.285,-0.89 0.143,-1.923 0.036,-2.813 0.961,-1.068 2.314,-2.03 3.276,-3.134 1.888,-2.101 3.454,-4.131 4.701,-6.552 l 0.855,-3.312 c -1.211,-2.137 -3.098,-3.739 -4.879,-5.342 -0.214,-0.32 -0.499,-0.605 -0.854,-0.783 0.213,2.564 1.104,4.95 1.923,7.407 0.214,0.961 -0.819,1.246 -1.354,1.709 -3.24,2.6 -6.659,5.591 -8.617,9.366 -0.641,1.353 -0.819,3.027 -0.428,4.416 -0.071,0.392 -0.036,0.748 -0.392,1.033 -0.961,0.499 -1.923,0.89 -2.742,1.638 0.071,0.392 -0.641,3.134 -0.748,3.276 l -0.641,0.534 c -1.175,0.321 -2.457,0.748 -3.739,0.605 -2.67,0.107 -5.341,-0.392 -7.656,-1.46 -1.389,-0.854 -0.783,-1.78 -0.783,-1.78 1.389,-1.425 3.098,-2.671 4.522,-4.06 0.321,-0.926 -0.214,-1.923 0.285,-2.813 1.389,-1.353 3.027,-2.35 4.202,-3.988 1.14,-2.314 2.6,-4.522 3.419,-6.979 0.285,-1.282 0.926,-2.493 1.317,-3.668 0.107,-0.89 -0.036,-1.354 -0.071,-2.244 -0.285,-1.816 -0.926,-3.418 -1.496,-5.164 -0.463,-1.068 -1.104,-1.994 -1.496,-3.098 -0.783,0.036 -1.46,0.463 -2.208,0.57 -2.991,0.677 -5.769,1.389 -8.902,1.709 -2.849,0.178 -5.662,0.534 -8.404,0.57 -1.033,-0.071 -2.314,-0.036 -3.454,-0.178 0.143,0.356 -0.356,4.131 -0.356,4.131 0.107,1.317 0.036,2.279 0.32,3.525 0.712,1.923 1.175,4.131 1.068,6.161 L 56.08,82.26 c 0,0 -0.89,1.923 -1.139,2.635 -0.143,1.389 -0.534,2.956 -0.25,4.451 l 0.143,2.564 c -0.178,0.819 0.32,1.709 -0.036,2.457 -0.534,0.463 -0.926,1.14 -1.603,1.496 0.214,0.997 0.605,3.205 0.605,3.205 0.107,0.926 -0.677,1.674 -1.354,2.172 l -2.136,0.748 c -1.531,0 -2.956,0.32 -4.38,-0.036 -1.745,-0.427 -3.525,-1.104 -4.807,-2.457 -0.214,-0.356 -0.107,-0.854 0,-1.247 1.104,-0.641 2.065,-1.673 2.706,-2.92 l 0.57,-1.21 c 0.143,-0.855 -0.285,-1.781 -0.463,-2.635 0.748,-1.068 1.781,-2.065 2.172,-3.241 0.249,-0.605 0.748,-1.353 0.427,-1.994 0.071,-1.247 -0.143,-2.671 -0.249,-3.953 -0.784,-1.211 -1.745,-2.458 -1.709,-3.953 0.036,-1.247 0.641,-2.458 0.499,-3.846 -0.143,-1.852 -0.89,-3.632 -1.068,-5.413 l -0.961,-2.635 c -0.392,0.107 -0.534,-0.285 -0.854,-0.321 0,0 -4.273,-1.673 -5.733,-2.67 -1.175,1.068 -2.244,2.457 -2.813,3.988 l 1.709,3.774 c 1.246,0.463 2.386,1.14 3.241,2.208 1.246,-0.392 2.35,-1.246 3.774,-1.104 0.463,0.178 0.641,0.748 0.855,1.175 0.392,0.89 1.513,5.341 1.175,10.256 -0.178,0.143 -0.249,0.463 -0.499,0.463 -1.21,-0.926 -2.6,-1.745 -4.167,-1.318 -0.569,0.285 -1.317,0.178 -1.887,0.499 -0.89,0.499 -2.137,0.249 -3.098,0.213 -1.353,-0.249 -2.493,-1.033 -3.668,-1.709 -0.748,-0.748 -1.496,-1.531 -1.567,-2.67 -1.104,-3.027 -2.314,-6.125 -4.665,-8.476 -1.14,-1.246 -3.704,-3.347 -3.704,-3.347 -0.036,-1.709 0.107,-3.632 0.213,-5.306 -0.106,-0.356 0.071,-0.676 0.356,-0.783 1.104,-0.961 2.243,-1.923 3.205,-2.991 0.926,-1.282 2.368,-3.081 2.564,-6.517 0.039,-0.684 0.25,-1.531 -0.142,-2.172 0,0 -2.386,-4.843 -2.386,-6.303 0,-1.567 1.033,-2.991 0.605,-4.665 -0.677,-3.49 -2.172,-6.659 -3.49,-9.864 -0.178,-0.249 -0.285,-0.783 -0.605,-0.712 -1.887,1.033 -4.273,0.997 -6.481,0.997 -0.677,0.107 -1.567,-0.748 -2.03,0.178 -0.677,0.926 -1.567,1.531 -2.564,2.065 C 9.287,32.048 8.147,33.081 6.99,32.903 6.1,32.511 5.263,32.12 4.444,31.55 3.197,30.482 1.915,29.2 1.061,27.775 0.491,27.063 -0.328,26.209 0.135,25.282 3.073,20.528 8.112,17.341 8.112,17.341 9.537,14.314 11.958,11.536 14.665,9.542 14.843,8.509 15.163,7.37 15.626,6.408 16.872,4.912 17.549,2.918 19.258,1.957 19.936,1.033 21.04,0.641 21.894,0 c 0.321,2.101 0.784,2.528 1.211,2.956 z"
   id="path5"
   inkscape:connector-curvature="0"
   style="fill:#d8ab65" />
	<path
   d="m 39.842,3.312 c 0.107,0.071 -1.282,1.852 -1.852,2.742 0,0 4.736,2.03 7.229,2.208 1.424,0 5.199,0.356 5.199,0.356 -0.872,1.407 -4.38,3.881 -4.38,3.881 2.813,0.926 5.342,2.6 8.297,3.241 4.113,0.694 5.947,0.214 6.161,0.32 0,0 -2.279,3.276 -4.095,3.953 l -1.14,0.392 c 0.427,0.356 1.033,0.605 1.567,0.783 2.279,1.175 4.701,2.137 7.372,2.351 1.353,0.036 1.994,0.374 4.416,0.107 -0.819,1.068 -2.03,2.136 -3.205,2.813 -1.424,0.997 -2.956,1.709 -4.594,2.244 1.033,1.282 2.528,1.709 3.846,2.528 0.926,0.392 1.923,0.641 2.991,0.783 -2.974,1.87 -8.013,0.819 -8.013,0.819 -1.816,-0.392 -3.81,-0.677 -5.27,-1.959 -2.065,-0.926 -3.739,-2.635 -5.555,-3.917 -4.452,-3.81 -7.692,-8.155 -12.072,-12.072 l -2.386,-2.03 -2.92,-2.137 C 30.191,10.148 28.945,9.543 27.627,9.222 27.413,9.151 27.342,9.008 27.235,8.83 27.378,7.797 28.018,6.835 27.876,5.767 25.988,5.66 24.172,6.016 22.641,6.942 22.32,6.978 22.32,6.657 22.32,6.408 22.249,5.874 22.783,5.589 23.139,5.269 c 1.068,-0.997 2.386,-1.282 3.632,-1.745 1.78,-0.285 3.597,-0.427 5.448,-0.534 2.637,-0.07 5.059,0.678 7.623,0.322 z"
   id="path7"
   inkscape:connector-curvature="0"
   style="fill:#f8eddf" />
	<path
   d="m 21.004,4.985 c 0.178,0.926 -0.107,2.03 0.25,2.92 -0.036,0.25 -1.211,1.14 -1.531,1.852 -1.656,-0.623 -2.03,0.676 -2.386,0.285 -0.178,-0.926 0.285,-1.78 0.499,-2.67 0.605,-1.46 1.745,-2.813 3.027,-3.739 0.746,0.248 -0.037,0.854 0.141,1.352 z"
   id="path9"
   inkscape:connector-curvature="0"
   style="fill:#714a00" />
	<path
   d="m 26.167,6.766 c 0.143,1.068 -0.178,2.03 0,3.205 0.57,0.214 1.282,0.25 1.852,0.534 2.422,1.14 4.701,2.849 6.766,4.594 4.202,4.131 7.834,8.511 12.037,12.677 1.424,1.104 2.684,2.415 4.237,3.455 4.896,3.276 11.217,3.24 12.535,3.24 3.063,-0.249 6.445,-0.107 9.508,-0.819 l 8.333,-1.175 c 3.81,-0.463 7.549,-1.246 11.502,-1.282 4.819,0.134 10.363,2.05 12.321,4.558 0.89,0.676 0.961,1.745 1.389,2.707 1.104,2.029 1.318,4.273 1.638,6.517 0.321,3.917 -0.499,7.798 -2.6,11.146 -0.641,1.068 -1.104,2.244 -1.567,3.383 -0.926,3.312 -0.32,6.98 1.175,9.971 0.748,2.208 3.027,3.561 4.273,5.413 0.107,0.214 -0.25,0.534 -0.25,0.534 0,0 -5.947,6.659 -8.119,9.615 -1.246,2.101 -2.35,4.345 -2.777,6.73 0.035,0.32 -0.143,0.641 -0.321,0.855 -0.712,0.32 -1.567,0.427 -2.35,0.641 l -0.499,2.813 c -0.285,0.392 -0.891,0.356 -1.211,0.712 -0.534,0.214 -5.448,-0.213 -5.555,-0.32 0.32,-0.463 0.854,-0.89 1.175,-1.247 0.926,-1.282 2.6,-2.243 3.133,-3.846 0.107,-0.25 -0.106,-0.57 -0.142,-0.854 0.427,-1.211 1.282,-2.172 2.03,-3.134 1.46,-1.816 2.777,-3.597 4.095,-5.449 l 2.421,-4.629 c 0.338,-2.208 -2.03,-4.701 -2.03,-4.701 -1.496,-1.424 -2.92,-3.134 -4.594,-4.309 -1.994,-1.638 -3.383,-4.024 -4.985,-5.982 -0.677,-1.104 -1.389,-2.279 -1.958,-3.455 -0.214,0.214 -6.73,2.315 -8.013,2.564 -3.632,1.175 -8.796,3.169 -17.77,3.525 l -5.021,0.249 c 0,0 -3.757,-0.018 -4.255,0.018 -0.107,0.676 -0.356,5.074 -0.356,5.074 0.25,1.033 -0.125,4.772 0.231,5.342 0.926,1.282 1.354,2.884 1.354,4.522 -0.071,0.819 -0.57,1.496 -0.891,2.208 -0.89,2.884 -1.246,6.374 -0.641,9.33 0.178,0.427 0.392,1.211 0.285,1.745 -0.499,0.534 -1.246,0.854 -1.816,1.282 -0.143,1.247 0.178,2.351 0.214,3.561 0.106,0.926 -0.962,0.784 -1.496,1.175 -1.246,0.392 -2.813,0.748 -4.024,0.036 -0.463,-0.143 -0.854,-0.57 -1.104,-0.961 -0.036,-0.356 0.321,-0.427 0.463,-0.677 0.961,-0.854 1.424,-2.03 2.136,-3.063 0.321,-0.676 0.071,-1.389 -0.356,-1.923 l 1.887,-3.775 c -0.071,-0.534 0.25,-1.068 0.285,-1.602 0.071,-2.065 0.143,-3.953 0.107,-5.983 -0.285,-1.104 -1.282,-1.887 -1.496,-3.027 L 47.21,76.988 c 0,-1.175 0.499,-2.065 0.142,-3.347 L 46.818,70.543 45.75,67.374 c -0.677,-1.211 -1.247,-2.564 -2.137,-3.632 -2.493,-0.57 -4.772,-1.78 -6.766,-3.347 -1.745,1.317 -4.665,3.667 -5.52,6.588 0.356,2.101 1.246,3.953 2.101,5.84 0.249,1.033 1.424,1.247 2.065,1.888 l 0.89,1.175 0.32,0.748 c 1.282,-0.855 2.493,-1.46 4.024,-1.781 0.605,0.499 0.677,1.354 0.891,2.101 0.143,1.389 0.641,2.707 0.89,3.988 -0.036,0.143 -0.178,0.214 -0.285,0.25 -0.891,-0.463 -1.567,-1.389 -2.671,-1.496 -1.14,0.213 -2.244,0.748 -3.098,1.424 -1.282,0.392 -2.279,-0.427 -3.241,-1.033 -0.57,-0.677 -1.282,-1.247 -1.816,-1.958 -0.499,-2.671 -1.923,-5.057 -3.525,-7.158 -1.247,-1.745 -2.849,-2.92 -4.38,-4.273 0.107,-1.21 0.321,-2.457 0.356,-3.632 1.068,-0.783 2.136,-1.46 3.098,-2.386 1.888,-2.314 3.419,-8.974 3.419,-8.974 C 29.546,49.711 28.94,47.575 28.05,45.545 27.765,45.082 27.765,44.477 27.445,44.014 27.481,43.48 28.62,39.919 28.62,39.919 L 27.872,37.106 C 26.661,34.222 23.278,25.782 22.281,24.82 c -2.528,1.068 -5.199,1.994 -8.155,1.923 l -0.748,-0.071 -2.03,1.745 C 10.351,29.058 9.39,29.841 8.143,30.055 7.253,30.126 6.291,29.877 5.9,29.094 4.903,28.026 3.656,27.1 3.015,25.853 2.873,25.497 3.193,25.248 3.122,24.927 c 0,0 3.988,-4.985 6.695,-6.339 l 0.854,-0.605 c 0.285,-1.389 0.819,-2.671 1.709,-3.775 1.745,-1.958 4.273,-2.92 6.766,-3.49 l 1.175,-0.107 c 0.605,-1.282 1.709,-2.243 2.991,-2.849 0.79,-0.426 2.962,-1.281 2.855,-0.996 z"
   id="path11"
   inkscape:connector-curvature="0"
   style="fill:#714a00" />
	<path
   d="m 34.394,7.834 c 1.068,0.356 3.24,1.317 3.24,1.317 1.46,0.463 2.956,0.997 4.452,1.282 -0.552,0.837 -0.748,0.891 -0.961,1.531 1.424,1.603 3.347,2.493 5.128,3.632 1.566,1.068 3.347,1.354 5.057,2.137 0.32,0.214 -0.071,0.57 -0.178,0.819 -0.534,0.392 -1.389,0.213 -1.709,0.89 0,0 2.813,4.06 4.701,5.235 0.178,0.178 -1.317,1.068 -1.887,0.463 -2.457,-1.994 -7.407,-6.713 -7.229,-6.926 0.285,-0.214 1.317,-0.552 1.317,-0.552 -0.926,-0.641 -1.958,-1.068 -2.92,-1.674 -1.958,-1.139 -3.81,-2.706 -5.769,-3.917 -0.213,-0.392 0.143,-0.605 0.392,-0.819 0,0 -3.169,-1.781 -4.167,-3.098 -0.109,-0.32 0.319,-0.355 0.533,-0.32 z"
   id="path13"
   inkscape:connector-curvature="0"
   style="fill:#a87720" />
	<path
   d="m 24.779,16.131 c 0.178,1.389 -0.891,2.386 -1.674,3.348 -1.46,1.424 -3.205,2.564 -5.306,2.956 -1.139,0.107 -2.279,-0.143 -2.92,-1.033 0.036,-0.25 -0.213,-0.57 0.143,-0.677 1.068,0.178 2.137,-0.142 3.063,-0.57 l 0.071,-0.071 c 1.496,-0.962 3.098,-1.888 4.202,-3.49 0.285,-0.641 0.499,-1.282 0.961,-1.816 0.747,0.107 0.961,0.89 1.46,1.353 z"
   id="path15"
   inkscape:connector-curvature="0"
   style="fill:#c37235" />
	<path
   d="m 29.301,16.096 c 0.605,1.531 -2.635,5.876 -3.775,5.805 -0.534,-0.214 -1.78,-0.784 -1.745,-0.961 1.638,-1.282 3.169,-3.276 3.24,-5.555 -0.036,-0.178 -0.071,-0.392 0.036,-0.534 0.25,-0.215 1.888,0.675 2.244,1.245 z"
   id="path17"
   inkscape:connector-curvature="0"
   style="fill:#d8ab65" />
	<path
   d="m 18.333,16.844 c 0.214,0.107 0.178,0.427 0.036,0.57 -0.748,1.14 -2.172,1.424 -3.418,1.175 -0.356,-0.071 -0.712,-0.249 -0.854,-0.605 0.106,-0.57 0.641,-0.855 0.961,-1.247 1.103,-0.606 2.135,0.534 3.275,0.107 z"
   id="path19"
   inkscape:connector-curvature="0"
   style="fill:#f8eddf" />
	<path
   d="m 38.275,22.542 c 0.178,-0.285 -0.249,-0.926 0.25,-1.104 0.392,0.249 1.496,0.89 1.496,0.89 0,1.354 0.57,2.493 0.677,3.846 -0.178,0.178 -0.214,0.463 -0.499,0.499 -0.213,-0.071 -2.421,-1.674 -3.525,-2.137 0,0 0.285,3.703 0.107,4.878 0,0 -3.418,-1.424 -5.341,-1.46 -0.071,1.852 0.748,6.089 0.569,6.339 -0.356,0.213 -3.917,-1.781 -4.487,-2.137 -0.356,-0.748 -0.57,-1.603 -0.641,-2.421 0.427,-0.214 2.243,0.427 2.243,0.427 0.036,-0.855 -0.712,-4.808 -0.641,-5.876 0.036,-0.213 4.024,0.534 5.591,1.46 0.143,-1.567 -0.106,-5.163 -0.106,-5.163 1.494,0.463 2.918,1.353 4.307,1.959 z"
   id="path21"
   inkscape:connector-curvature="0" />
	<path
   d="m 8.861,23.823 c 0.249,0.285 0.178,0.748 0.071,1.068 -0.285,0.712 -1.175,1.104 -1.888,1.318 -0.356,0 -0.854,-0.036 -1.175,0.071 C 5.655,25.995 5.121,26.102 5.121,25.675 5.228,25.39 5.655,25.319 5.833,25.07 6.582,24.357 7.686,23.04 8.861,23.823 z"
   id="path23"
   inkscape:connector-curvature="0"
   style="fill:#f8eddf" />
	<path
   d="m 44.329,27.918 c 0.463,0.605 0.855,1.247 1.14,1.923 0,0 -3.935,0.926 -10.434,8.974 -0.784,1.46 -1.888,2.742 -2.635,4.238 -0.499,0.178 -2.208,-2.956 -2.813,-4.06 0.178,-0.499 0.712,-1.674 0.855,-1.674 0.427,0.285 0.783,0.783 1.246,1.104 1.14,-1.531 2.493,-2.813 3.881,-4.131 1.851,-1.887 4.985,-5.216 8.76,-6.374 z"
   id="path25"
   inkscape:connector-curvature="0"
   style="fill:#c37235" />
	<path
   d="m 47.391,32.583 c -0.178,0.356 -2.991,1.923 -4.024,2.813 -2.6,1.958 -4.451,4.487 -6.161,7.229 -2.528,3.988 -3.312,6.98 -3.561,6.873 -0.748,-0.427 -3.667,-3.098 -4.237,-4.202 0.035,-0.677 0.213,-1.246 0.427,-1.852 0.57,-0.214 2.457,1.567 2.956,2.065 0.427,-0.499 0.57,-1.211 0.961,-1.781 1.317,-2.493 3.134,-4.594 4.914,-6.837 2.137,-2.351 4.38,-4.772 7.193,-6.161 10e-4,0.002 1.603,1.64 1.532,1.853 z"
   id="path27"
   inkscape:connector-curvature="0"
   style="fill:#d8ab65" />
	<path
   d="m 97.353,33.474 c 0.463,0.499 0.356,1.247 0.32,1.852 -0.036,0.427 -0.392,0.712 -0.712,0.926 -0.427,0.178 -0.854,0.107 -1.282,0.071 -0.427,-0.214 -0.748,-0.605 -0.997,-1.033 -0.143,-0.712 0.071,-1.531 0.748,-1.958 0.57,-0.357 1.495,-0.499 1.923,0.142 z"
   id="path29"
   inkscape:connector-curvature="0"
   style="fill:#f8eddf" />
	<path
   d="m 92.581,33.723 c 0.392,0.463 0.356,1.14 0.143,1.674 -0.25,0.463 -0.784,0.499 -1.247,0.641 -0.392,-0.071 -0.819,-0.178 -1.14,-0.463 -0.249,-0.392 -0.356,-0.854 -0.178,-1.317 0.178,-0.499 0.605,-1.104 1.175,-1.211 0.499,0.035 0.962,0.32 1.247,0.676 z"
   id="path31"
   inkscape:connector-curvature="0"
   style="fill:#f8eddf" />
	<path
   d="m 116.796,34.613 c 8.422,3.632 11.395,12.464 12.179,15.241 0.463,0.926 2.92,7.977 3.276,11.182 -0.463,-0.534 -1.424,-1.567 -2.101,-1.852 0.178,0.57 0.534,1.282 0.784,1.923 0.534,1.674 0.819,3.418 1.068,5.128 0.107,1.46 0.249,2.92 0.427,4.38 -0.036,1.923 0.783,3.774 1.674,5.52 0.926,1.531 2.333,4.665 4.095,6.303 0.036,0.178 -5.502,-1.46 -9.366,-8.048 0.071,2.208 0.481,5.609 2.279,8.262 -0.428,0.249 -3.098,-2.421 -4.131,-3.454 -2.137,-2.6 -3.49,-5.626 -4.629,-8.725 l -0.534,-1.709 c -0.214,0 -1.674,2.155 -1.709,5.662 -2.208,-4.38 -1.46,-10.113 -1.638,-14.671 -0.142,-2.101 -1.068,-4.024 -1.531,-6.018 -0.499,0.748 -0.854,1.745 -1.282,2.6 -0.712,1.175 -1.816,2.528 -3.205,2.884 -0.427,-0.107 -0.178,-0.641 -0.143,-0.854 0.356,-1.211 0.641,-2.351 0.677,-3.632 0.107,-2.528 -0.214,-4.843 -0.57,-7.336 -0.249,-1.104 -0.676,-2.172 -0.961,-3.276 -0.677,-1.068 -0.926,-2.314 -1.603,-3.383 -0.819,-1.531 -1.887,-2.991 -2.777,-4.558 -0.071,-0.32 1.941,-1.855 2.813,-2.208 2.421,-0.981 5.547,0.052 6.908,0.639 z"
   id="path33"
   inkscape:connector-curvature="0"
   style="fill:#f8eddf" />
	<path
   d="m 87.738,34.399 c 0.285,0.25 0.356,0.641 0.356,0.998 -0.071,0.32 -0.285,0.641 -0.57,0.819 -0.285,0.178 -0.784,0.071 -1.211,0 -0.427,-0.178 -0.392,-0.712 -0.463,-1.104 0,-0.463 0.285,-0.854 0.712,-1.068 0.428,-0.214 0.927,0.035 1.176,0.355 z"
   id="path35"
   inkscape:connector-curvature="0"
   style="fill:#f8eddf" />
	<path
   d="m 67.44,36.465 c 3.632,-0.142 10.576,-1.424 10.576,-1.424 -0.036,0.463 0.071,1.068 -0.071,1.531 0,0 -18.695,4.522 -27.954,-0.036 -0.249,-0.641 0.178,-1.389 0.392,-2.03 9.401,3.384 17.057,1.959 17.057,1.959 z"
   id="path37"
   inkscape:connector-curvature="0" />
	<path
   d="m 83.038,35.61 c 0.071,0.392 -0.036,0.819 -0.143,1.175 -0.356,0.32 -0.819,0.677 -1.353,0.427 -0.356,0 -0.463,-0.392 -0.605,-0.605 0.036,-0.463 -0.143,-1.068 0.32,-1.317 0.534,-0.427 1.567,-0.498 1.781,0.32 z"
   id="path39"
   inkscape:connector-curvature="0"
   style="fill:#f8eddf" />
	<path
   d="m 101.234,35.575 c 0.427,0.641 0.712,1.674 0.32,2.386 -0.32,0.605 -1.068,0.499 -1.638,0.605 -0.499,-0.213 -1.104,-0.534 -1.211,-1.104 0.071,-0.748 -0.036,-1.745 0.712,-2.208 0.571,-0.498 1.319,-0.107 1.817,0.321 z"
   id="path41"
   inkscape:connector-curvature="0"
   style="fill:#f8eddf" />
	<path
   d="m 118.452,39.848 c 0.178,-0.623 0.178,-1.157 0.303,-1.781 0.641,0.071 0.748,0.855 1.353,1.033 0.249,1.14 0,3.632 0.214,4.843 -1.692,-2.493 -4.808,-4.629 -6.446,-5.876 0.036,-0.499 -0.107,-1.139 0.143,-1.638 0,0 2.919,1.282 4.433,3.419 z"
   id="path43"
   inkscape:connector-curvature="0"
   style="fill:#a87720" />
	<path
   d="m 94.825,38.851 c 0.106,0.499 -0.036,1.068 -0.428,1.353 -0.463,0.499 -1.14,0.321 -1.709,0.178 -0.285,-0.285 -0.641,-0.463 -0.748,-0.854 0,-0.677 0.071,-1.496 0.748,-1.888 0.392,-0.107 0.89,-0.285 1.282,-0.036 0.391,0.321 0.641,0.784 0.855,1.247 z"
   id="path45"
   inkscape:connector-curvature="0"
   style="fill:#f8eddf" />
	<path
   d="m 89.768,38.388 c 0.25,0.356 0.25,0.748 0.036,1.068 -0.285,0.534 -0.712,0.854 -1.282,0.997 -0.499,-0.071 -0.89,-0.321 -1.068,-0.819 -0.071,-0.392 -0.036,-0.89 0.214,-1.246 0.533,-0.677 1.601,-0.641 2.1,0 z"
   id="path47"
   inkscape:connector-curvature="0"
   style="fill:#f8eddf" />
	<path
   d="m 85.067,38.815 c 0.249,0.249 0.213,0.605 0.213,0.89 -0.143,0.57 -0.854,0.819 -1.389,0.89 -0.427,-0.178 -0.677,-0.499 -0.854,-0.89 0,-0.499 0.178,-0.961 0.569,-1.282 0.5,-0.142 1.105,-0.035 1.461,0.392 z"
   id="path49"
   inkscape:connector-curvature="0"
   style="fill:#f8eddf" />
	<path
   d="m 104.653,39.955 c 0.036,0.605 0.392,1.317 -0.036,1.816 -0.499,0.605 -1.282,0.463 -1.923,0.25 -0.499,-0.356 -0.712,-0.891 -0.854,-1.46 0.071,-0.463 0.32,-0.997 0.819,-1.21 0.712,-0.322 1.638,-0.073 1.994,0.604 z"
   id="path51"
   inkscape:connector-curvature="0"
   style="fill:#f8eddf" />
	<path
   d="m 99.739,40.703 c 0.143,0.641 0,1.389 -0.427,1.852 -0.178,0.25 -0.534,0.428 -0.89,0.428 -0.57,0 -1.14,-0.25 -1.496,-0.677 -0.356,-0.356 -0.463,-0.819 -0.427,-1.317 0.036,-0.463 0.356,-0.891 0.748,-1.175 0.392,-0.143 0.89,-0.427 1.317,-0.178 0.462,0.212 1.068,0.497 1.175,1.067 z"
   id="path53"
   inkscape:connector-curvature="0"
   style="fill:#f8eddf" />
	<path
   d="m 60.674,40.471 c -0.213,1.78 0.125,3.668 0.089,5.342 -0.143,0.356 -1.692,0.801 -2.404,0.659 0,0 -0.463,-2.671 -0.25,-3.811 -1.353,-0.036 -8.653,2.564 -8.653,2.564 -0.213,0 -0.499,-2.421 0.534,-2.706 2.672,-0.534 10.399,-2.439 10.684,-2.048 z"
   id="path55"
   inkscape:connector-curvature="0"
   style="fill:#a87720" />
	<path
   d="m 114.339,40.24 c 1.104,1.247 1.318,2.956 2.137,4.309 0.214,-0.321 0.89,-0.926 1.068,-0.926 0.961,1.211 2.707,5.556 2.707,5.556 0.57,-0.891 0.427,-2.065 0.57,-3.134 3.063,0.926 6.517,6.338 6.517,6.338 0.071,1.033 -0.285,3.525 -0.285,3.525 -0.997,-1.745 -2.457,-4.754 -4.558,-5.769 -0.213,2.065 -0.463,4.095 -1.424,5.875 -1.015,-3.437 -3.098,-7.3 -3.49,-7.799 -0.783,0.605 -1.086,1.247 -1.958,2.137 -0.018,-1.424 -2.279,-7.656 -2.421,-7.834 0.033,-0.497 1.137,-2.278 1.137,-2.278 z"
   id="path57"
   inkscape:connector-curvature="0"
   style="fill:#a87720" />
	<path
   d="m 75.88,41.059 c -1.051,2.172 -1.318,3.739 -1.247,4.594 -0.285,0.213 -2.511,0.48 -2.475,0.16 0.143,-0.855 0.321,-1.638 0.356,-2.493 -1.674,-0.106 -3.027,0.445 -7.069,1.478 -0.214,-0.392 0.784,-1.656 1.211,-2.635 3.633,-0.979 8.974,-1.532 9.224,-1.104 z"
   id="path59"
   inkscape:connector-curvature="0"
   style="fill:#a87720" />
	<path
   d="m 92.438,41.807 c 0.178,0.427 0.356,0.961 0.143,1.46 -0.32,0.356 -0.605,0.819 -1.14,0.89 -0.605,-0.071 -1.317,-0.499 -1.531,-1.104 0.071,-0.499 -0.143,-1.068 0.285,-1.389 0.285,-0.392 0.819,-0.427 1.282,-0.57 0.463,0 0.748,0.357 0.961,0.713 z"
   id="path61"
   inkscape:connector-curvature="0"
   style="fill:#f8eddf" />
	<path
   d="m 87.987,42.554 c 0.245,0.63 -0.463,2.172 -1.05,4.149 l -2.439,0.48 c 0,0 0.766,-2.333 0.48,-2.973 -1.673,-0.178 -3.935,0.659 -5.573,0.694 -0.25,-0.285 -0.191,-1.637 0.783,-1.852 2.832,-0.622 6.98,-0.391 7.799,-0.498 z"
   id="path63"
   inkscape:connector-curvature="0"
   style="fill:#a87720" />
	<path
   d="m 105.721,43.302 c 0.25,0.57 0.677,1.14 0.321,1.781 -0.321,0.463 -0.819,0.712 -1.318,0.748 -0.427,0 -0.712,-0.392 -0.89,-0.712 -0.25,-0.534 -0.321,-1.068 0.036,-1.567 0.213,-0.356 0.57,-0.534 0.961,-0.676 0.356,-0.037 0.712,0.106 0.89,0.426 z"
   id="path65"
   inkscape:connector-curvature="0"
   style="fill:#f8eddf" />
	<path
   d="m 96.605,45.225 c 0.107,0.57 -0.32,0.891 -0.641,1.175 -0.285,0.32 -0.748,0.641 -1.175,0.534 -0.677,-0.392 -1.175,-1.104 -1.068,-1.958 -0.071,-0.427 0.249,-0.748 0.32,-1.068 0.356,0.036 0.605,-0.356 0.997,-0.321 1.068,-0.107 1.14,0.997 1.567,1.638 z"
   id="path67"
   inkscape:connector-curvature="0"
   style="fill:#f8eddf" />
	<path
   d="m 101.127,44.549 c 0.321,0.427 0.356,1.033 0.214,1.531 -0.25,0.605 -0.854,1.068 -1.496,1.175 -0.57,-0.071 -1.068,-0.463 -1.354,-0.997 -0.32,-0.427 -0.107,-0.997 0.071,-1.389 0.25,-0.463 0.748,-0.819 1.282,-0.926 0.536,-0.035 0.999,0.249 1.283,0.606 z"
   id="path69"
   inkscape:connector-curvature="0"
   style="fill:#f8eddf" />
	<path
   d="m 44.685,49.071 c 3.597,-1.282 7.229,-2.778 11.11,-3.525 0.213,0.036 0.143,2.457 0.285,3.063 0,0 6.98,-3.081 13.141,-2.261 0.107,0.605 -0.356,3.027 -0.356,3.027 0.57,-0.071 8.458,-3.383 14.814,-3.188 0.071,0.321 -0.926,2.742 -0.926,2.742 2.493,-0.801 8.76,-0.783 11.11,-0.534 0.321,0.143 1.068,1.567 1.068,1.994 -0.249,0.463 -8.974,-0.926 -15.633,2.386 0,0 0.214,-2.813 0.605,-4.059 0,0 -7.479,0.213 -14.138,4.95 -0.071,-1.638 0.285,-3.205 0.356,-4.808 -1.425,0.143 -7.051,0.961 -13.604,4.843 0,0 0.178,-4.38 0.178,-4.522 -1.745,0.534 -3.276,1.353 -4.985,2.065 -1.354,0.89 -2.742,1.638 -4.024,2.6 -0.214,0.035 -3.704,-7.55 -4.06,-9.152 0.035,-0.142 0.035,-0.32 0.249,-0.32 0.644,0.07 3.492,3.667 4.81,4.699 z"
   id="path71"
   inkscape:connector-curvature="0" />
	<path
   d="m 105.365,49.499 c -0.071,0.641 -0.605,0.926 -1.14,1.14 -0.427,0.142 -1.068,0.071 -1.389,-0.285 -0.356,-0.356 -0.605,-0.854 -0.427,-1.317 0.071,-0.534 0.534,-0.961 0.961,-1.211 0.463,-0.071 0.997,-0.249 1.389,0.143 0.464,0.39 0.464,0.995 0.606,1.53 z"
   id="path73"
   inkscape:connector-curvature="0"
   style="fill:#f8eddf" />
	<path
   d="m 99.596,49.89 c 0,0.463 -0.106,0.997 -0.499,1.354 -0.427,0.249 -0.844,0.473 -1.389,0.356 -1.247,-0.267 -1.068,-1.424 -1.068,-1.424 0.32,-0.784 0.854,-1.496 1.745,-1.603 0.641,0.177 0.927,0.783 1.211,1.317 z"
   id="path75"
   inkscape:connector-curvature="0"
   style="fill:#f8eddf" />
	<path
   d="m 78.159,55.054 c 1.781,-0.57 4.95,-2.564 9.045,-2.849 0.355,-0.025 0.624,1.353 0.784,2.172 -3.953,-0.071 -10.754,3.811 -10.897,3.846 -0.32,-0.107 -1.78,-5.52 -1.246,-5.947 0.605,-0.356 1.282,-0.463 1.745,-0.997 0.213,0.142 0.569,3.775 0.569,3.775 z"
   id="path77"
   inkscape:connector-curvature="0"
   style="fill:#a87720" />
	<path
   d="m 103.264,52.988 c 0.249,0.463 -0.036,1.033 -0.178,1.496 -0.249,0.356 -0.783,0.392 -1.21,0.534 -0.463,-0.036 -0.748,-0.285 -1.033,-0.641 -0.356,-0.569 -0.143,-1.389 0.178,-1.923 0.356,-0.427 0.891,-0.178 1.318,-0.071 0.391,-0.071 0.783,0.214 0.925,0.605 z"
   id="path79"
   inkscape:connector-curvature="0"
   style="fill:#f8eddf" />
	<path
   d="m 51.38,56.158 c 0.499,0.107 6.908,-2.457 6.944,-2.137 0.071,0.961 0.107,2.065 -0.036,2.991 -5.092,0.997 -9.116,3.312 -9.259,3.063 -0.285,-0.463 -0.926,-6.73 -0.748,-6.837 0.676,-0.499 1.424,-0.641 2.172,-0.962 0.357,0.142 0.464,2.599 0.927,3.882 z"
   id="path81"
   inkscape:connector-curvature="0"
   style="fill:#a87720" />
	<path
   d="m 64.413,56.585 c 1.033,-0.178 6.196,-2.6 7.621,-3.027 0.125,1.335 0.125,1.424 0.321,2.528 -3.241,0.641 -6.606,2.546 -9.633,3.614 -0.801,-1.869 -1.264,-5.43 -1.264,-5.43 0,0 1.816,-0.997 2.279,-1.389 0.32,0.179 0.498,2.778 0.676,3.704 z"
   id="path83"
   inkscape:connector-curvature="0"
   style="fill:#a87720" />
	<path
   d="m 96.89,57.618 c -5.146,0.481 -6.553,2.172 -6.766,2.065 -0.321,-0.356 -1.282,-1.994 -0.961,-2.35 0.427,-0.641 5.27,-2.315 7.157,-2.101 0,0 0.463,1.745 0.57,2.386 z"
   id="path85"
   inkscape:connector-curvature="0" />
	<path
   d="m 101.234,57.19 c -0.285,-0.321 -0.677,-0.677 -1.211,-0.605 -0.569,0.071 -0.854,0.57 -0.997,1.068 -0.071,0.534 0.214,1.104 0.641,1.424 0.285,0.107 0.677,0.143 0.961,0.036 0.285,-0.214 0.854,-0.356 0.89,-0.783 0.144,-0.356 -0.035,-0.784 -0.284,-1.14 z"
   id="path87"
   inkscape:connector-curvature="0"
   style="fill:#f8eddf" />
	<path
   d="m 124.203,62.781 0.89,-3.276 c 0.926,0.374 4.487,7.122 4.701,9.01 -0.143,0.32 -1.211,1.068 -1.531,0.961 -0.285,-0.178 -1.567,-3.454 -2.172,-4.629 -0.32,0.499 -1.567,2.849 -1.709,2.884 -0.392,-1.638 -1.496,-2.884 -2.208,-4.416 l -1.424,-2.137 c -0.143,0.071 -0.392,-2.813 0.107,-3.169 0.284,0 3.133,4.63 3.346,4.772 z"
   id="path89"
   inkscape:connector-curvature="0"
   style="fill:#a87720" />
	<path
   d="m 99.24,61.214 c 0,0 -4.38,0.089 -6.481,2.137 -1.033,-0.214 -1.567,-1.282 -1.709,-2.208 0,0 5.021,-2.404 6.552,-2.279 0.73,0.837 0.997,0.837 1.638,2.35 z"
   id="path91"
   inkscape:connector-curvature="0"
   style="fill:#c37235" />
	<path
   d="m 90.142,66.022 c -0.392,0.641 -0.125,0.997 -0.125,1.745 0.107,2.92 0.926,6.481 1.816,9.294 -0.036,0.427 -3.703,3.383 -3.703,3.383 -1.104,1.282 -2.458,2.315 -3.49,3.668 -1.247,1.175 -1.923,2.849 -2.849,4.309 -0.356,0.641 -0.676,1.21 -0.819,1.958 l 0.427,1.958 c 0.107,0.641 -0.677,0.605 -1.033,0.89 -0.641,0.143 -1.282,0.463 -1.887,0.748 -0.285,1.068 -0.392,2.101 -0.712,3.134 -0.854,0.392 -1.709,0.783 -2.813,0.57 0,0 -3.917,-0.25 -3.953,-0.997 1.104,-1.175 2.351,-2.386 3.418,-3.562 0.25,-0.427 0.25,-1.033 0.392,-1.496 0.071,-0.32 -0.071,-1.032 0.499,-1.246 1.068,-0.712 1.673,-1.816 2.457,-2.778 1.14,-1.531 1.986,-3.34 2.991,-4.985 2.795,-4.576 3.098,-7.905 3.098,-7.905 -0.178,-1.567 0.036,-2.956 -0.392,-4.416 -0.392,-1.816 -0.855,-3.632 -1.567,-5.377 l -0.57,-1.3 c 0.392,-0.463 5.11,-1.335 5.431,-1.514 0.535,0.037 3.099,3.812 3.384,3.919 z"
   id="path93"
   inkscape:connector-curvature="0"
   style="fill:#714a00" />
	<path
   d="m 102.089,64.028 c -0.213,0.569 -0.854,0.213 -1.282,0.463 -1.923,0.499 -3.561,1.638 -5.235,2.635 -0.285,-0.035 -1.923,-1.122 -1.603,-2.083 1.175,-1.211 6.41,-3.044 7.336,-2.653 10e-4,0 1.069,1.246 0.784,1.638 z"
   id="path95"
   inkscape:connector-curvature="0" />
	<path
   d="m 87.596,65.061 c -2.528,0.427 -3.383,1.139 -3.526,0.89 -0.285,-0.499 -0.748,-1.923 -0.534,-2.03 0.534,-0.107 2.635,-0.605 3.205,-0.499 0.498,0.428 0.57,1.104 0.855,1.639 z"
   id="path97"
   inkscape:connector-curvature="0"
   style="fill:#c37235" />
	<path
   d="m 101.733,66.164 c 0.214,0.677 0.57,1.424 0.641,2.208 0,0 -2.457,0.926 -3.276,1.816 -0.961,-0.249 -1.424,-1.282 -2.279,-1.816 0.178,-0.534 4.843,-2.528 4.914,-2.208 z"
   id="path99"
   inkscape:connector-curvature="0"
   style="fill:#c37235" />
	<path
   d="m 87.916,67.09 c -0.249,0.463 0.57,1.068 0.499,1.602 -0.249,0.356 -2.707,0.891 -3.597,0.961 -0.392,-0.463 -0.089,-1.229 -0.374,-1.763 -0.214,-0.497 3.472,-0.8 3.472,-0.8 z"
   id="path101"
   inkscape:connector-curvature="0" />
	<path
   d="m 103.691,70.829 c 0.071,0.463 0,0.89 -0.392,1.211 -0.25,0.285 -0.677,0.463 -1.033,0.249 -0.285,-0.071 -0.641,-0.249 -0.712,-0.57 -0.106,-0.32 -0.106,-0.854 0.107,-1.139 0.178,-0.285 0.534,-0.321 0.819,-0.463 0.464,0.107 1.104,0.107 1.211,0.712 z"
   id="path103"
   inkscape:connector-curvature="0" />
	<path
   d="m 88.949,72.325 c -0.143,0.321 -0.499,0.178 -0.748,0.321 l -2.635,0.57 c -0.285,-0.356 -0.784,-1.959 -0.57,-2.244 0.997,-0.499 2.279,-0.356 3.276,-0.819 0.392,-0.071 0.677,2.172 0.677,2.172 z"
   id="path105"
   inkscape:connector-curvature="0"
   style="fill:#c37235" />
	<path
   d="m 105.864,74.497 c 0.036,0.392 0.036,0.961 -0.285,1.353 -0.356,0.428 -0.891,0.25 -1.318,0.071 -0.641,-0.213 -0.427,-0.89 -0.499,-1.389 0.107,-0.392 0.32,-0.819 0.783,-0.89 0.606,-0.071 0.998,0.499 1.319,0.855 z"
   id="path107"
   inkscape:connector-curvature="0" />
	<path
   d="m 87.916,75.352 c 0.214,0.427 -0.107,0.784 -0.392,1.068 -0.392,0.285 -0.997,0.463 -1.282,0 -0.213,-0.356 -0.605,-0.712 -0.356,-1.21 0.214,-0.285 0.499,-0.712 0.89,-0.677 0.535,0 0.82,0.463 1.14,0.819 z"
   id="path109"
   inkscape:connector-curvature="0" />
	<path
   d="m 85.886,78.628 c 0.214,0.32 0.071,0.748 -0.107,1.068 -0.249,0.107 -0.463,0.392 -0.783,0.213 -0.392,-0.213 -0.534,-0.676 -0.392,-1.068 0.036,-0.285 0.285,-0.605 0.605,-0.605 0.286,0 0.606,0.142 0.677,0.392 z"
   id="path111"
   inkscape:connector-curvature="0" />
</g>
</svg>